<?xml version="1.0" encoding="utf-8"?>
<!-- Generator: Adobe Illustrator 27.0.1, SVG Export Plug-In . SVG Version: 6.00 Build 0)  -->
<svg version="1.1" id="Layer_1" xmlns="http://www.w3.org/2000/svg" xmlns:xlink="http://www.w3.org/1999/xlink" x="0px" y="0px"
	 viewBox="0 0 216 216" style="enable-background:new 0 0 216 216;" xml:space="preserve">
<style type="text/css">
	.st0{fill:#F1BE37;}
	.st1{fill:#1C75BC;}
</style>
<path class="st0" d="M50.94,52.09c2,2,16.5,110,21,110s82,3.5,82,0s15.5-110,15.5-110H50.94z"/>
<path class="st1" d="M179.62,43.06l0-1.23l0,0c0-0.08,0-0.16-0.01-0.23c-0.23,0.03-0.47,0.05-0.72,0.07
	c-0.14,0.01-0.28,0.02-0.43,0.03c-0.12,0.01-0.24,0.02-0.36,0.02c-0.32,0.02-0.64,0.03-0.97,0.04c-0.5,0.02-1.01,0.03-1.52,0.04
	c-1.23,0.04-2.43,0.09-3.39,0.3l-1.56,0.04c-0.66,0.14-3.47,0.48-4.56,0.5c-0.16,0-0.29,0-0.38-0.02c-0.25,0-0.5,0-0.75-0.03
	c-0.57-0.05-1.15-0.11-1.7-0.16c-0.22-0.02-0.45-0.05-0.67-0.07c-0.26-0.03-2.02,0.77-2.28,0.74c-0.08-0.01-0.15-0.02-0.23-0.03
	c-0.19-0.03-0.76-0.17-0.95-0.17l0,0c-0.49,0.02-1.05,0.08-1.61,0.09c-0.3,0.01-0.59,0-0.88-0.04c-0.21-0.03-0.42-0.06-0.64-0.09
	c-0.17-0.02-0.34-0.05-0.5-0.07c-0.05-0.01-0.1-0.01-0.14-0.02c-0.08-0.01-0.15-0.02-0.22-0.03c-0.26-0.04-0.51-0.07-0.77-0.11
	c-0.09-0.01-0.18-0.03-0.27-0.04c-0.14-0.02-0.28-0.04-0.43-0.06c-0.24-0.04-0.48-0.07-0.72-0.11c-0.71-0.1-1.41-0.2-2.09-0.28
	c-0.09-0.01-0.18-0.02-0.27-0.03c-0.04,0-0.08-0.01-0.12-0.01c-0.13-0.01-0.28-0.01-0.43-0.01c-0.22,0.01-0.45,0.02-0.67,0.05
	c-0.08,0.01-0.15,0.02-0.22,0.02c-0.1,0.01-0.2,0.02-0.29,0.03c-0.07,0.01-0.14,0.02-0.21,0.03c-0.14,0.02-0.26,0.03-0.35,0.05
	c-0.18,0.02-0.4,0.04-0.65,0.04c-1.12,0.03-2.96-0.09-3.84-0.14l-4.99,0c-0.07-0.01-0.13-0.02-0.19-0.03
	c-0.03-0.01-0.05-0.01-0.08-0.02c-0.03-0.01-0.06-0.01-0.09-0.02c-0.04-0.01-0.07-0.02-0.11-0.03c-0.04-0.01-0.07-0.02-0.11-0.03
	c-0.06-0.02-0.14-0.04-0.21-0.06c-0.23-0.07-0.46-0.14-0.68-0.21c-0.11-0.03-0.22-0.07-0.33-0.1c-0.11-0.03-0.21-0.06-0.31-0.08
	c-0.2-0.04-0.49-0.1-0.82-0.16c-0.11-0.02-0.23-0.04-0.36-0.06c-0.9-0.15-1.99-0.31-2.52-0.38l-1.87-0.03
	c-1.17-0.02-2.26-0.04-3.31-0.06c-0.53-0.01-1.04-0.02-1.55-0.03l-2.2-0.05c-1.28-0.13-4.46-0.59-6.5-0.63
	c-0.32-0.01-0.62,0-0.87,0.01c-0.08,0.01-0.16,0.01-0.23,0.02c-0.01,0-0.01,0-0.01,0c-0.08,0.01-0.16,0.02-0.23,0.03
	c-0.25,0.04-0.47,0.09-0.69,0.13c-0.06,0.01-0.12,0.02-0.18,0.03c-0.12,0.02-0.24,0.04-0.36,0.05c-0.37,0.03-0.74,0.03-1.11,0.02
	c-0.13,0-0.25-0.01-0.38-0.01l-0.29-0.01c-0.03,0-0.06,0-0.08,0c-0.11,0-0.22,0-0.33,0c-0.11,0-0.22,0-0.32,0.01
	c-0.21,0.01-0.41,0.03-0.59,0.06l-1.19-0.02c-0.04,0.03-0.07,0.05-0.1,0.08c-0.04,0.04-0.08,0.08-0.12,0.12
	c-0.05,0.05-0.1,0.11-0.14,0.17c-0.05,0.06-0.09,0.12-0.13,0.18c0,0.01-0.01,0.02-0.02,0.03c-0.07,0.1-0.13,0.21-0.2,0.32
	c-0.05,0.08-0.09,0.16-0.15,0.24c-0.05,0.08-0.11,0.16-0.17,0.24c-0.01,0.01-0.02,0.02-0.03,0.03c-0.06,0.07-0.12,0.15-0.19,0.22
	c-0.05,0.05-0.1,0.1-0.16,0.14c-0.26,0.2-0.9,0.32-1.13,0.48c-0.07,0.16-0.13,0.31-0.19,0.47c-0.09,0.24-0.16,0.49-0.22,0.74
	c-0.18,0.23-0.54,0.63-0.78,0.95c-0.13,0.18-0.11,0.37-0.3,0.52c-0.02,0-0.04,0.01-0.05,0.01c-0.01,0-0.02,0-0.03,0.01
	c-0.02,0-0.03,0-0.04,0.01c0,0-0.01,0-0.01,0c-0.01,0-0.02,0.01-0.06,0.03c-0.15-0.01-0.29-0.03-0.43-0.06
	c-0.07-0.01-0.13-0.03-0.2-0.05c-0.05-0.01-0.1-0.03-0.14-0.04c-0.14-0.04-0.28-0.09-0.41-0.14c-0.58-0.23-1.09-0.53-1.79-0.61
	c-0.07-0.01-0.14-0.01-0.2-0.02c-0.04,0-0.08-0.01-0.12-0.01c-0.07,0-0.13-0.01-0.2-0.01c0,0,0,0-0.01,0c-0.15,0-0.29,0-0.43,0.01
	c-0.1,0-0.2,0.01-0.29,0.01c-0.08,0-0.16,0-0.23,0c-0.15,0-0.3-0.01-0.44-0.04c-0.58-0.1-1.06-0.36-1.56-0.45
	c-0.38-0.01-0.75-0.02-1.12-0.03c-0.01,0-0.01,0-0.02-0.01c-0.09-0.03-0.19-0.06-0.3-0.1c-0.05-0.02-0.11-0.04-0.16-0.06
	c-0.15-0.06-0.3-0.13-0.46-0.2c-0.11-0.05-0.21-0.11-0.32-0.17c-0.1-0.05-0.19-0.11-0.29-0.16c-0.28-0.17-0.53-0.33-0.71-0.46
	c-0.23-0.1-0.45-0.2-0.67-0.3c-0.7-0.52-1.51-0.99-2.04-1.54l-1.41,0.08c-0.22,0.06-0.46,0.26-0.68,0.32
	c-0.14,0.04-0.3,0.06-0.46,0.06c-0.2,0.01-0.4,0-0.59-0.02c-0.07-0.01-0.13-0.01-0.2-0.02c-0.03,0-0.07-0.01-0.11-0.01
	c-0.05-0.01-0.1-0.01-0.14-0.02c-0.07-0.01-0.13-0.02-0.19-0.02c-0.17-0.02-0.33-0.03-0.45-0.03c-0.04,0-0.07,0-0.1,0.01
	c-0.09,0.01-0.18,0.03-0.27,0.06c-0.05,0.01-0.11,0.03-0.17,0.04c-0.01,0-0.01,0-0.02,0.01c-0.05,0.01-0.11,0.03-0.16,0.05
	c-0.03,0.01-0.06,0.02-0.09,0.03c-0.03,0.01-0.07,0.02-0.1,0.03c-0.05,0.01-0.1,0.03-0.15,0.04c-0.09,0.02-0.19,0.04-0.28,0.06
	c-0.01,0-0.01,0-0.02,0c-0.04,0.01-0.07,0.01-0.11,0.01c-0.01,0-0.03,0-0.04,0c-0.06,0.01-0.12,0.01-0.19,0.01
	c-0.12,0-0.23,0-0.35-0.02c-0.18-0.03-0.36-0.05-0.54-0.07c-0.16-0.02-0.31-0.03-0.47-0.05c-0.1-0.01-0.21-0.02-0.31-0.03
	c-0.27-0.02-0.55-0.04-0.83-0.05c-0.4-0.02-0.81-0.03-1.21-0.04c-0.18,0-0.36-0.01-0.54-0.01c-0.23-0.01-0.46-0.01-0.69-0.01
	c-0.06,0-0.12,0-0.17-0.01c-0.6-0.02-1.21-0.05-1.82-0.07c-0.6,0.08-1.41,0.13-2.05,0.21l-2.74-0.06c-0.21,0.03-0.37,0.16-0.58,0.19
	c-0.4,0-0.8-0.01-1.21-0.01c-0.37,0.04-0.82,0.15-1.29,0.15c-0.02,0-0.05,0-0.08,0c-0.24-0.01-0.65-0.08-0.96-0.1c0,0,0,0-0.01,0
	c-0.9-0.03-1.83-0.07-2.79-0.1c-0.2-0.02-0.38-0.03-0.56-0.05c-0.1-0.01-0.2-0.02-0.29-0.02c-0.16-0.01-0.31-0.02-0.46-0.03
	c-0.08,0-0.15-0.01-0.23-0.01c-0.06,0-0.12,0-0.18,0c-0.07,0-0.13,0-0.2,0c-0.08,0-0.16,0-0.24,0c-0.04,0-0.07,0-0.12,0
	c-0.06,0-0.12,0.01-0.18,0.01c-0.06,0-0.12,0.01-0.18,0.01c-0.26,0.02-0.6,0.02-0.96,0c-0.67-0.03-1.42-0.1-1.85-0.16
	c-0.61,0-1.23-0.01-1.86-0.01c-1.26-0.16-2.38-0.28-3.91-0.3c-1.43-0.02-4.02-0.03-5.68-0.03c-0.98,0-1.96,0.02-2.84,0.11
	c-0.22,0.02-0.44,0.04-0.65,0.07c-0.21,0.03-0.41,0.06-0.61,0.1c-0.4,0.07-0.76,0.17-1.09,0.28c-0.26,0.09-0.55,0.12-0.86,0.12
	c-0.9,0-1.92-0.29-2.45-0.41h-3.89l-0.29,0.39c-0.13,0.05-0.26,0.08-0.42,0.08c-0.77,0-1.82-0.58-2.45-0.58c0,0,0,0-0.01,0
	c-0.05,0-0.1,0-0.14,0.01c-0.49,0.1-1.1,0.37-1.56,0.49h-3.21c-0.87,0.22-1.45,0.9-2.24,1.17c0.09,1.22,1.44,2.1,2.04,2.92
	c0.4,0.54,0.66,1.11,1.07,1.65c0.4,0.53,1.14,0.79,1.56,1.46c0.44,0.71,0.56,1.6,1,2.32c0.13,0.13,0.26,0.26,0.39,0.4
	c0.28,0.21,0.57,0.46,0.85,0.69c0.19,0.25,0.26,0.66,0.49,0.88c0.03,0.03,0.08,0.04,0.13,0.04c0.04,0,0.09-0.01,0.13-0.01
	c0.06,0,0.11,0.01,0.14,0.06c0.11,0.19,0.05,0.33,0,0.45c-0.01,0.03-0.02,0.07-0.03,0.1c0,0.02-0.01,0.04-0.01,0.07
	c0,0.05,0.01,0.1,0.04,0.15c0.12,0.22,0.45,0.47,0.58,0.68c0.27,0.43,0.3,0.94,0.58,1.36c0.19,0.28,0.56,0.39,0.68,0.78
	c0.01,0.15,0.02,0.3,0.02,0.44c0.06,0.96,0.11,1.91,0.17,2.86c0.09,0.26,0.49,0.42,0.58,0.68c0.21,0.57-0.01,1.04,0.29,1.46
	c0,0,0.01,0,0.01,0c0.13,0.06,0.25,0.13,0.38,0.19c0.23,0.41,0.11,0.81,0,1.2c-0.04,0.12-0.07,0.24-0.1,0.36
	c0,0.02-0.01,0.03-0.01,0.05c0,0.02-0.01,0.04-0.01,0.07c0,0.02-0.01,0.04-0.01,0.06c0,0.02,0,0.03,0,0.05c0,0.01,0,0.02,0,0.02
	v0.05c0,0.05,0,0.1,0.01,0.15c0,0.02,0,0.03,0,0.05c0.01,0.03,0.02,0.06,0.02,0.1c0.3,0.98,0.7,1.9,1.1,2.82
	c0.27,0.62,0.55,1.24,0.79,1.88c0.06,0.15,0.12,0.31,0.17,0.47c0.06,0.18,0.13,0.36,0.19,0.55c0.05,0.15,0.1,0.31,0.14,0.47
	c0.05,0.17,0.1,0.34,0.14,0.52c0.07,0.29,0.1,0.58,0.1,0.86c0,1.31-0.6,2.51-0.29,3.81c0.05,0.21,0.1,0.42,0.14,0.64
	c0.04,0.21,0.08,0.42,0.12,0.64c0.04,0.18,0.07,0.37,0.11,0.56c0.03,0.17,0.06,0.35,0.1,0.52c0.03,0.18,0.07,0.36,0.11,0.54
	c0.04,0.18,0.08,0.36,0.13,0.53c0.02,0.07,0.03,0.13,0.05,0.2c0.02,0.08,0.04,0.17,0.06,0.25c0.04,0.14,0.08,0.27,0.12,0.41
	c0.05,0.15,0.1,0.3,0.15,0.45c0.05,0.15,0.11,0.28,0.17,0.42c0.18,0.4,0.81,0.51,0.97,0.88c0.01,0.02,0.02,0.04,0.02,0.06
	c0.01,0.02,0.01,0.04,0.02,0.06c0.03,0.14,0.02,0.28,0,0.43c0,0,0,0,0,0c-0.01,0.09-0.04,0.17-0.06,0.25
	c-0.01,0.04-0.02,0.09-0.03,0.13c-0.02,0.08-0.04,0.15-0.04,0.22c-0.01,0.08-0.01,0.15,0,0.21c0.15,0.56,0.77,1.26,1.07,1.75
	c0.56,0.92,1.04,2.05,1.46,3.01c0.49,1.46,0.97,2.92,1.46,4.38h0.97c0.11,0.02,0.22,0.06,0.33,0.09c0.21,0.07,0.4,0.16,0.58,0.25
	c0.09,0.05,0.17,0.1,0.26,0.15c0.02,0.04,0.02,0.07,0.03,0.09c0,0.01,0.01,0.02,0.01,0.02c0.01,0.02,0.01,0.02,0.02,0.04
	c0,0,0.01,0.01,0.01,0.02c0.01,0.01,0.02,0.02,0.03,0.03c-0.19,1.85-1.35,3.56-1.75,5.25c-0.04,0.18-0.06,0.37-0.06,0.56
	c0,0.1,0,0.19,0.02,0.29c0,0.06,0.01,0.13,0.02,0.2c0.01,0.06,0.02,0.13,0.03,0.19c0.02,0.09,0.03,0.17,0.05,0.26
	c0.04,0.18,0.09,0.35,0.13,0.51c0.02,0.09,0.05,0.17,0.07,0.26c0.02,0.06,0.04,0.13,0.05,0.19c0.02,0.05,0.03,0.09,0.04,0.14
	c0.01,0.04,0.02,0.09,0.03,0.13c0.01,0.05,0.02,0.1,0.02,0.15c0.02,0.13,0.01,0.28,0,0.43l0,0c0,0.09-0.01,0.17-0.02,0.26
	c0,0.09-0.01,0.18-0.01,0.26v0.02c0,0.04,0,0.07,0.01,0.11c0,0.04,0.01,0.08,0.02,0.12c0.01,0.08,0.04,0.15,0.08,0.21
	c0,0,1.77,1.12,1.85,1.17c-0.04,0.35-0.19,0.54-0.34,0.72c-0.09,0.1-0.17,0.19-0.25,0.3c-0.04,0.05-0.07,0.1-0.1,0.15
	c-0.03,0.06-0.06,0.13-0.09,0.2c-0.01,0.03-0.02,0.08-0.01,0.13c0,0.02,0,0.04,0.01,0.06c0.01,0.04,0.02,0.09,0.03,0.15
	c0.02,0.08,0.05,0.17,0.08,0.27c0.05,0.15,0.11,0.31,0.18,0.48c0.09,0.22,0.19,0.46,0.29,0.69c0.04,0.11,0.09,0.22,0.13,0.32
	c0.11,0.26,0.2,0.49,0.25,0.63c0.13,0.43,0.18,0.85,0.18,1.26c0,0.09,0,0.17-0.01,0.25c0,0.08-0.01,0.17-0.02,0.25
	c-0.01,0.09-0.02,0.18-0.04,0.26c-0.02,0.09-0.03,0.17-0.05,0.26c-0.02,0.09-0.04,0.17-0.06,0.26c-0.02,0.09-0.05,0.17-0.08,0.25
	c-0.08,0.24-0.19,0.48-0.3,0.69c-0.04,0.07-0.08,0.14-0.11,0.21c-0.04,0.07-0.09,0.14-0.13,0.21c-0.04,0.06-0.09,0.13-0.13,0.19
	c-0.03,0.04-0.06,0.08-0.09,0.11c-0.11,0.14-0.21,0.27-0.33,0.38c0.17,1.03,0.98,1.84,1.46,2.63c0.16,0.26,0.32,0.54,0.46,0.83
	c0.05,0.09,0.1,0.18,0.14,0.28c0.21,0.43,0.41,0.89,0.59,1.35c0.05,0.14,0.1,0.28,0.15,0.41c0.06,0.15,0.11,0.3,0.15,0.44
	c0.09,0.29,0.18,0.58,0.26,0.87c0.01,0.05,0.02,0.1,0.04,0.16c0.01,0.06,0.02,0.11,0.03,0.17c0.01,0.06,0.02,0.13,0.04,0.2
	c0,0.06,0.01,0.12,0.02,0.19c0,0.04,0.01,0.09,0.02,0.13c0,0.05,0.01,0.11,0.02,0.17c0.02,0.21,0.03,0.43,0.04,0.67
	c0.01,0.17,0.02,0.36,0.02,0.54c0,0.09,0,0.19,0,0.28c0,0.21,0,0.42,0,0.63c0,0.12,0,0.23,0,0.35c0,0.06,0,0.13,0,0.19
	c0,0.1-0.01,0.19-0.01,0.28c-0.02,0.53-0.05,1.05-0.1,1.52c-0.02,0.28-0.06,0.55-0.09,0.79c-0.02,0.17-0.05,0.32-0.08,0.46
	c-0.01,0.06-0.02,0.12-0.04,0.17c-0.01,0.04-0.02,0.07-0.03,0.11c-0.01,0.05-0.03,0.1-0.04,0.15c-0.01,0.02-0.02,0.05-0.02,0.07
	c-0.04,0.12-0.08,0.26-0.12,0.39c-0.02,0.07-0.04,0.14-0.05,0.21c-0.03,0.14-0.06,0.29-0.07,0.43c-0.01,0.07-0.01,0.15-0.01,0.22
	c0,0.15,0.02,0.3,0.06,0.45c0.25,0.9,0.96,1.57,1.24,2.3c0.39,1.01,0.64,1.99,0.98,2.99c0.15,0.43,0.5,0.67,0.73,1.04
	c0.05,0.09,0.11,0.18,0.15,0.28c0.04,0.07,0.07,0.15,0.11,0.23c0.14,0.29,0.27,0.61,0.45,0.9c0.11,0.09,0.21,0.31,0.3,0.41
	c0.04,0.05,0.09,0.1,0.14,0.15c0.05,0.04,0.1,0.09,0.15,0.13c-0.06,0.99-0.38,1.6-0.56,2.3c-0.46,1.8-0.75,3.95-0.6,5.98
	c0.01,0.09,0.02,0.19,0.04,0.28c0.02,0.11,0.06,0.23,0.1,0.35c0.05,0.16,0.12,0.33,0.2,0.49c0.03,0.06,0.05,0.12,0.09,0.18
	c0.27,0.56,0.57,1.11,0.69,1.53c0.05,0.18,0.09,0.42,0.09,0.7l0,0c0,0.07,0,0.15,0,0.24c0,0.15-0.01,0.32-0.02,0.48
	c0,0.09-0.01,0.18-0.02,0.27c-0.01,0.09-0.01,0.18-0.03,0.28c-0.03,0.24-0.06,0.49-0.1,0.74c-0.15,1-0.4,2.02-0.56,2.5
	c-0.12,0.38-0.1,0.89-0.18,1.31c-0.01,0.05-0.02,0.1-0.03,0.15c-0.01,0.03-0.02,0.06-0.03,0.09c-0.01,0.03-0.02,0.06-0.03,0.09
	c-0.02,0.04-0.04,0.08-0.06,0.11c0.01,0.4,0.42,0.86,0.91,1.24c0.49,0.39,1.07,0.71,1.37,0.89c-0.02,0.44-0.09,0.85-0.16,1.25
	c-0.02,0.08-0.04,0.15-0.05,0.22c-0.04,0.15-0.07,0.3-0.11,0.45c-0.02,0.06-0.03,0.12-0.05,0.19c-0.01,0.06-0.03,0.12-0.05,0.18
	c-0.03,0.12-0.07,0.23-0.11,0.35c-0.07,0.23-0.14,0.46-0.21,0.69c-0.05,0.15-0.09,0.3-0.13,0.45c-0.01,0.03-0.02,0.06-0.03,0.1
	c-0.23,0.86-0.58,1.88-0.93,2.92c-0.34,1.02-0.69,2.05-0.96,2.98c-0.13,0.45-0.24,0.88-0.32,1.28c-0.13,1.54-0.58,3.13-0.84,4.75
	c0,0.15,0,0.28,0,0.41c-0.13,0.1-0.21,0.15-0.21,0.15l0.41,0.71c1.49,0,3.67-0.63,5-0.92c0.65-0.03,1.3-0.06,1.95-0.1
	c0.36-0.08,1.21-0.21,1.75-0.21c0.11,0,0.21,0.01,0.29,0.02c0.13,0.02,0.31,0.06,0.52,0.11c0.07,0.02,0.15,0.04,0.23,0.05
	c0.32,0.08,0.69,0.17,1.07,0.25c0.28,0.06,0.57,0.13,0.84,0.18c0.09,0.02,0.18,0.03,0.27,0.05c0.02,0,0.04,0.01,0.06,0.01
	c0.32,0.05,0.61,0.09,0.83,0.09c0.16,0,0.28-0.02,0.35-0.06c1.23-0.02,3.58-0.53,5.25-0.53c0.11,0,0.22,0,0.32,0.01
	c0.06,0,0.13,0.01,0.19,0.01c0.65,0.05,1.13,0.22,1.32,0.58h0.03c0.33,0,0.68,0,1.03,0.01c0.06,0,0.12,0,0.18,0
	c0.18,0,0.36,0.01,0.55,0.02c1.1,0.04,2.25,0.1,3.4,0.15c0.69,0.03,1.38,0.06,2.07,0.07c0.36,0.01,0.72,0.01,1.07,0.01
	c0.78,0,1.54-0.02,2.27-0.08c2.42-0.18,3.96-0.24,4.92-0.24h0.09c0,0.04,0,0.08,0,0.12c0.06-0.01,0.13-0.01,0.2-0.02
	c0.34-0.03,0.7-0.05,1.05-0.07c0,0.01-0.01,0.02-0.01,0.02c0.17,0.02,0.22,0.04,0.22,0.04c0.44,0,0.85-0.02,1.26-0.04
	c0.15,0.01,0.3,0.03,0.42,0.06c1.32,0.3,3.05-0.18,3.05-0.18l2.58,0.93l0.55-0.2c0.06,0.01,0.11,0.02,0.16,0.03
	c0.11,0.08,0.23,0.11,0.36,0.15c0.05,0.01,0.09,0.03,0.14,0.04c0.07,0.02,0.13,0.04,0.19,0.06c0.02,0.01,0.05,0.01,0.07,0.02
	c0.09,0.02,0.17,0.04,0.25,0.06c0.89,0.18,1.93,0.38,2.81,0.56l1.5-0.07c1.39,0.27,3.36,0.26,4.67,0.58
	c0.34-0.04,0.69-0.09,1.03-0.13c0.18,0.03,0.65,0.23,0.75,0.27l2.08-0.04c0.36,0.08,0.9,0.23,1.43,0.23c0.16,0,0.32-0.02,0.47-0.05
	c0.14-0.03,0.29-0.06,0.44-0.08c0.12-0.02,0.23-0.04,0.35-0.05c0.1-0.01,0.19-0.02,0.28-0.03c0.1-0.01,0.21-0.02,0.32-0.03
	c0.48-0.04,0.96-0.05,1.44-0.05c0.96,0,1.91,0.02,2.77-0.08c0.62,0.01,1.24,0.02,1.87,0.04c0.12-0.02,0.24-0.06,0.36-0.09l0.02-0.01
	c0.19-0.05,0.39-0.11,0.59-0.19c0.13-0.05,0.26-0.1,0.39-0.14c0.06-0.02,0.13-0.05,0.19-0.08c0.26-0.1,0.52-0.21,0.77-0.31
	c0.25-0.1,0.5-0.2,0.75-0.29c0.76-0.28,1.56-0.35,2.31-0.68c0.07-0.03,0.13-0.06,0.21-0.1c0.08-0.04,0.15-0.07,0.23-0.11
	c0.16-0.08,0.33-0.16,0.5-0.23c0.06-0.03,0.12-0.05,0.18-0.07c0,0,0.01-0.01,0.01-0.01c0.06-0.02,0.12-0.05,0.18-0.06
	c0.07-0.02,0.13-0.04,0.2-0.05c0.09-0.02,0.2-0.02,0.31-0.01c0.06,0,0.13,0.01,0.2,0.02c0.05,0.01,0.11,0.02,0.16,0.03
	c0.06,0.02,0.12,0.03,0.18,0.05c0.08,0.02,0.15,0.04,0.22,0.07c0.06,0.02,0.12,0.04,0.18,0.06c0.1,0.04,0.21,0.08,0.31,0.12
	c0.11,0.04,0.21,0.08,0.31,0.13c0.72,0.31,1.41,0.66,1.79,0.79c0.42,0.14,0.79,0.2,1.14,0.23c0.18,0.01,0.34,0.01,0.51,0
	c0.23-0.01,0.45-0.03,0.68-0.05c0.03,0,0.06,0,0.09-0.01c0,0,0.01,0,0.01,0c0.23-0.02,0.46-0.05,0.7-0.05c0.01,0,0.01,0,0.02,0
	c0.35-0.01,0.73,0,1.17,0.06c0.59-0.07,0.59-0.43,1.27-0.83c0.68-0.4,0.79-0.47,2.22-0.71c1.42-0.24,1.86-0.21,2.21,0.16
	c0.35,0.37,0.91,0.6,1.28,0.25c-0.06,0.07-0.01,0.09,0.65-0.37c1.27-0.88,1.1-0.58,1.1-0.58l0.5-0.43l1.34,0.02l0.4-0.46
	c0,0,0.17-0.01,0.43,0.21c0.26,0.22,0.67-0.16,0.85-0.08c0.11,0.05,0.24,0.04,0.35,0.04c0.52,0,0.95-0.25,1.3-0.33
	c0.2-0.05,0.4-0.07,0.6-0.07c0.79,0,2.43,0.43,3.96,0.69c1.91,0.32,5.19,0.37,6.82,0.86c0.3,0.02,0.6,0.05,0.89,0.07
	c0.15,0.01,0.29,0.02,0.43,0.03c0.28,0.02,0.53,0.03,0.74,0.03c0.1,0,0.2,0,0.3,0c0.15,0,0.3-0.02,0.4-0.04
	c0.07-0.34-0.07-0.94-0.07-1.2c0-0.25,0-0.48,0-0.72c-0.01-0.45,0.05-0.93,0.06-1.62c-0.06-0.5-0.14-1.01-0.25-1.51
	c-0.02-0.22-0.09-0.64-0.21-1.05c-0.01-0.06-0.03-0.12-0.05-0.17c-0.03-0.1-0.07-0.21-0.11-0.31c0,0,0,0,0,0
	c-0.03-0.07-0.05-0.13-0.08-0.19c-0.36-0.75-0.75-1.54-1.15-2.32l-1.34,0.03l0.56-1.54c-0.16-0.36-0.31-0.72-0.46-1.08
	c-0.04-0.08-0.07-0.16-0.1-0.25c-0.17-0.33-0.5-0.93-0.65-1.4c-0.03-0.1-0.06-0.2-0.07-0.28c-0.27-1.46-0.67-3.22-0.44-4.61
	l0.01-1.03c0.01-0.07,0.03-0.14,0.05-0.22c0.07-0.32,0.18-0.68,0.29-1.07c0.09-0.31,0.19-0.63,0.29-0.97
	c0.05-0.17,0.1-0.34,0.14-0.51c0.02-0.09,0.04-0.17,0.07-0.26c0.02-0.09,0.04-0.18,0.06-0.26c0.02-0.06,0.03-0.12,0.04-0.19
	c0-0.01,0.01-0.02,0.01-0.03c0.02-0.09,0.04-0.19,0.06-0.28c0.02-0.08,0.03-0.17,0.04-0.25c0.01-0.07,0.02-0.14,0.03-0.21
	c0.02-0.11,0.03-0.22,0.04-0.34c0-0.03,0.01-0.06,0.01-0.09l0.01-0.19c0-0.03,0-0.07,0-0.1c0-0.19,0.25-0.52,0.23-0.71
	c-0.11-0.1-0.22-0.24-0.31-0.39c0.87-1.37,0.79-3.72,0.67-4.82c0.04-0.33,0.02-0.77-0.07-1.16c-0.01-0.42-0.03-0.82-0.11-1.3
	l0.11-0.33c0-0.09-0.01-0.19-0.02-0.28c0-0.04-0.01-0.07-0.01-0.1c-0.01-0.12-0.03-0.25-0.05-0.36c-0.04-0.31-0.1-0.62-0.13-0.94
	c-0.01-0.1-0.02-0.19-0.03-0.29c-0.01-0.1-0.01-0.2-0.01-0.31c0-0.06,0-0.13,0-0.19c0-0.05,0-0.11,0.01-0.17
	c0-0.07,0.01-0.15,0.02-0.23c0.01-0.08,0.02-0.16,0.03-0.24c0.16-0.11,0.31-0.23,0.44-0.37c0.04-0.05,0.08-0.09,0.12-0.14
	c0.04-0.05,0.08-0.1,0.12-0.15l0.16-1.99c0,0-0.19-0.72-0.46-1.26s-0.57-0.88-0.84-1.3c-0.23-0.37,0.06-0.65,0.29-0.84
	c0.09-0.3,0.19-0.52,0.3-0.72c-0.13-1.19,0.22-3.22,0.22-3.22s0.32-4.4,0.69-5.55s1.01-3.16,1.33-3.9c0.32-0.73,0.05-2.11,0.46-2.84
	c0.37-0.66,0.74-0.95,1.11-1.64c-0.15-0.6-0.32-1.19-0.42-1.8l-0.18-0.33l-1.71-1.51l-0.07-1.63c0,0-0.14-0.41,0.67-1.89
	c0.81-1.48,0.92-2.93,0.92-2.93l0.37-0.96c0,0-0.01-0.85,1.43-1.08c0.09-0.01,0.18-0.03,0.26-0.05c0.03-0.56,0.04-1.1,0.04-1.1
	c0.1-0.21,0.25-0.42,0.43-0.6c0.02-0.02,0.04-0.04,0.06-0.06c0.05-0.28,0.07-0.62,0.12-1.1c0.07-0.8,0.3-3.16,0.25-4.05
	c-0.04-0.76-0.26-1.43-0.17-2.36c-0.14-0.44-0.23-0.84-0.23-1.1c0-0.07,0.01-0.15,0.02-0.23c0.09-0.57,0.46-1.27,0.58-2.01
	c0.02-0.15,0.04-0.3,0.04-0.46c0.03-0.93,1.25-5.39,1.29-6.32c-0.01-0.24-0.09-0.75-0.04-1.06c0-0.02,0.01-0.05,0.01-0.07
	c0.03-0.12,0.07-0.23,0.12-0.35c0.03-0.08,0.07-0.15,0.11-0.23c0.02-0.04,0.04-0.09,0.07-0.13c0.02-0.04,0.04-0.08,0.06-0.11
	c0.03-0.05,0.06-0.11,0.09-0.16c0.05-0.09,0.1-0.19,0.16-0.29c0.04-0.06,0.07-0.13,0.11-0.2c0.19-0.34,0.39-0.71,0.52-1.1
	c0.02-0.05,0.04-0.1,0.05-0.16c0.01-0.01,0.01-0.03,0.01-0.04c0.02-0.07,0.04-0.15,0.06-0.23c0.02-0.08,0.04-0.17,0.05-0.25
	c0.01-0.08,0.02-0.16,0.03-0.24c0.01-0.13,0.02-0.26,0.01-0.4c0-0.01,0-0.01,0-0.02c0-0.07-0.01-0.14-0.01-0.22
	c-0.01-0.1-0.03-0.21-0.05-0.32c-0.04-0.19-0.48-1.54-0.49-1.67c-0.09-1.2,0.62-3.74,1.26-6.58c0.15-0.68,0.28-1.37,0.41-2.06
	l-0.75-2.81l1.75-1.49c0.23-1.02,0.13-2.41,0.34-3.11c0.02-0.07,0.04-0.13,0.07-0.19c0.39-0.77,1.02-1.29,1.3-2.36l0.02-0.07
	c0.01-0.05,0.02-0.11,0.03-0.17c0.08-0.49,0.06-1.15,0.1-1.74c0.01-0.22,0.04-0.44,0.08-0.63c0.03-0.14,0.07-0.27,0.12-0.38
	c0.07-0.15,0.15-0.3,0.25-0.44c0.04-0.05,0.07-0.11,0.11-0.16c0.03-0.04,0.06-0.08,0.08-0.12c0.03-0.04,0.06-0.08,0.09-0.12
	c0.12-0.16,0.23-0.32,0.35-0.49c0.04-0.06,0.08-0.13,0.13-0.19c0.05-0.08,0.1-0.17,0.15-0.26c0.03-0.06,0.06-0.12,0.09-0.18
	c0.34-0.74,0.27-1.74,0.5-2.58c0.12-0.44,0.39-0.7,0.47-1.1c0.02-0.07,0.02-0.18,0.03-0.32C179.86,45.91,179.71,43.59,179.62,43.06z
	 M156.19,61.31c-5.65,7.96-7.27,12.79-7.27,12.79c-0.99,2.77-2.33,11.44-2.33,11.44l-9.01,54.85c-0.74,6.46,3.1,10.66,3.1,10.66
	c0.54,0.61-0.1,0.58-0.1,0.58l-27.23,0.29c-0.88,0.05-0.48-0.58-0.48-0.58l1.45-4.46c0.54-1.6,0.39-2.42,0.39-2.42
	c-0.05-2.12-1.45-8.04-1.45-8.04l-3.78-18.9c-0.12-0.32-0.19,0-0.19,0c-2.22,8.2-5.33,23.94-5.33,23.94c-0.45,2.73,0,4.17,0,4.17
	c1.09,4.42,1.84,5.72,1.84,5.72c0.4,0.82-0.1,0.58-0.1,0.58c-0.59,0-27.72,0.1-27.72,0.1c-0.32,0-0.19-0.19-0.19-0.19
	c0.13-0.23,0.87-1.16,0.87-1.16c2.44-2.98,3.1-4.94,3.1-4.94c1.21-2.59,0.39-4.94,0.39-4.94c-1.46-6.95-6.01-26.65-6.01-26.65
	c-3.21-13.74-8.72-36.83-8.72-36.83c-1.99-7.94-3.29-10.76-3.29-10.76c-1.43-3.53-3.88-4.75-3.88-4.75
	c-0.49-0.35-1.36-1.07-1.36-1.07c24.12,0,26.17,0,26.17,0c0.7,0.02,0.39,0.68,0.39,0.68c-0.38,1.65-0.68,7.27-0.68,7.27
	c-0.09,1.87,0.48,4.46,0.48,4.46l9.69,47.49c0.89-3.23,13.47-53.69,13.47-53.69c0.15-0.45,0.19-0.19,0.19-0.19l5.23,20.64
	l8.82,34.21c0.3,0.86,0.48-0.19,0.48-0.19c0.62-3.15,7.37-46.42,7.37-46.42l1.26-8.33c0.36-3.74-1.74-5.62-1.74-5.62
	c-0.68-0.69,0.1-0.48,0.1-0.48c2.62,0.25,25.58,0,25.58,0C156.96,60.52,156.19,61.31,156.19,61.31z"/>
</svg>
