<?xml version="1.0" encoding="utf-8"?>
<!-- Generator: Adobe Illustrator 27.0.1, SVG Export Plug-In . SVG Version: 6.00 Build 0)  -->
<svg version="1.1" id="Layer_2" xmlns="http://www.w3.org/2000/svg" xmlns:xlink="http://www.w3.org/1999/xlink" x="0px" y="0px"
	 viewBox="0 0 216 216" style="enable-background:new 0 0 216 216;" xml:space="preserve">
<style type="text/css">
	.st0{fill:#603913;}
	.st1{fill:#DC482B;}
	.st2{fill:#F1BE37;}
</style>
<path class="st0" d="M179.36,47.87l0-1.14l0,0c0-0.07,0-0.14-0.01-0.22c-0.23,0.03-0.47,0.05-0.71,0.07
	c-0.14,0.01-0.28,0.02-0.43,0.03c-0.12,0.01-0.24,0.01-0.36,0.02c-0.32,0.02-0.64,0.03-0.97,0.04c-0.5,0.01-1.01,0.02-1.51,0.04
	c-1.23,0.03-2.42,0.09-3.38,0.28l-1.56,0.04c-0.65,0.13-3.46,0.45-4.55,0.46c-0.16,0-0.29,0-0.37-0.01c-0.25,0-0.49,0-0.75-0.02
	c-0.57-0.05-1.14-0.1-1.7-0.15c-0.22-0.02-0.45-0.04-0.67-0.07c-0.26-0.03-2.01,0.71-2.27,0.68c-0.08-0.01-0.15-0.02-0.23-0.03
	c-0.19-0.02-0.76-0.16-0.95-0.15l0,0c-0.49,0.01-1.05,0.07-1.6,0.08c-0.29,0.01-0.59,0-0.88-0.04c-0.21-0.03-0.42-0.06-0.63-0.08
	c-0.17-0.02-0.33-0.04-0.5-0.07c-0.05-0.01-0.1-0.01-0.14-0.02c-0.08-0.01-0.15-0.02-0.22-0.03c-0.25-0.03-0.51-0.07-0.76-0.1
	c-0.09-0.01-0.18-0.02-0.27-0.04c-0.14-0.02-0.28-0.04-0.43-0.06c-0.24-0.03-0.47-0.06-0.71-0.1c-0.71-0.1-1.41-0.19-2.08-0.26
	c-0.09-0.01-0.18-0.02-0.27-0.03c-0.04,0-0.08-0.01-0.12-0.01c-0.13-0.01-0.28-0.01-0.43-0.01c-0.22,0.01-0.45,0.02-0.67,0.04
	c-0.08,0.01-0.15,0.01-0.22,0.02c-0.1,0.01-0.2,0.02-0.29,0.03c-0.07,0.01-0.14,0.02-0.21,0.03c-0.14,0.02-0.26,0.03-0.35,0.04
	c-0.18,0.02-0.4,0.03-0.65,0.04c-1.12,0.03-2.95-0.08-3.82-0.13l-4.97,0c-0.07-0.01-0.13-0.02-0.19-0.03
	c-0.03-0.01-0.05-0.01-0.08-0.02c-0.03-0.01-0.06-0.01-0.09-0.02c-0.04-0.01-0.07-0.01-0.11-0.02c-0.04-0.01-0.07-0.02-0.11-0.03
	c-0.06-0.02-0.14-0.03-0.21-0.05c-0.22-0.06-0.45-0.13-0.68-0.2c-0.11-0.03-0.22-0.06-0.32-0.09c-0.11-0.03-0.21-0.05-0.31-0.07
	c-0.2-0.04-0.48-0.09-0.82-0.15c-0.11-0.02-0.23-0.04-0.35-0.06c-0.89-0.14-1.98-0.29-2.51-0.35l-1.87-0.03
	c-1.17-0.02-2.25-0.03-3.3-0.05c-0.53-0.01-1.04-0.02-1.54-0.03l-2.19-0.04c-1.27-0.12-4.45-0.54-6.47-0.58
	c-0.32-0.01-0.61,0-0.87,0.01c-0.08,0.01-0.15,0.01-0.23,0.02c-0.01,0-0.01,0-0.01,0c-0.08,0.01-0.16,0.02-0.23,0.03
	c-0.25,0.04-0.47,0.08-0.69,0.12c-0.06,0.01-0.12,0.02-0.18,0.03c-0.12,0.02-0.24,0.04-0.36,0.05c-0.37,0.03-0.74,0.03-1.11,0.02
	c-0.13,0-0.25,0-0.37-0.01l-0.29-0.01c-0.03,0-0.06,0-0.08,0c-0.11,0-0.22,0-0.33,0c-0.11,0-0.22,0-0.32,0.01
	c-0.21,0.01-0.41,0.03-0.59,0.06l-1.18-0.02c-0.04,0.03-0.07,0.05-0.1,0.08c-0.04,0.03-0.08,0.07-0.12,0.11
	c-0.05,0.05-0.1,0.1-0.14,0.15c-0.05,0.05-0.09,0.11-0.13,0.17c0,0.01-0.01,0.02-0.02,0.03c-0.06,0.1-0.13,0.19-0.2,0.29
	c-0.05,0.07-0.09,0.15-0.15,0.22c-0.05,0.08-0.11,0.15-0.17,0.22c-0.01,0.01-0.02,0.02-0.03,0.03c-0.06,0.07-0.12,0.14-0.19,0.2
	c-0.05,0.04-0.1,0.09-0.16,0.13c-0.26,0.19-0.89,0.3-1.12,0.44c-0.07,0.14-0.13,0.29-0.19,0.44c-0.09,0.22-0.16,0.45-0.22,0.68
	c-0.18,0.21-0.54,0.58-0.77,0.88c-0.13,0.16-0.11,0.34-0.3,0.48c-0.02,0-0.04,0.01-0.05,0.01c-0.01,0-0.02,0-0.03,0.01
	c-0.02,0-0.03,0-0.04,0.01c0,0-0.01,0-0.01,0c-0.01,0-0.02,0.01-0.06,0.02c-0.15-0.01-0.29-0.03-0.43-0.05
	c-0.07-0.01-0.13-0.03-0.2-0.04c-0.05-0.01-0.1-0.02-0.14-0.04c-0.14-0.04-0.28-0.08-0.41-0.13c-0.58-0.22-1.09-0.49-1.78-0.57
	c-0.07-0.01-0.13-0.01-0.2-0.02c-0.04,0-0.08-0.01-0.12-0.01c-0.06,0-0.13-0.01-0.19-0.01c0,0,0,0-0.01,0c-0.15,0-0.29,0-0.43,0.01
	c-0.1,0-0.2,0.01-0.29,0.01c-0.08,0-0.16,0-0.23,0c-0.15,0-0.3-0.01-0.44-0.03c-0.58-0.09-1.05-0.33-1.55-0.41
	c-0.37-0.01-0.75-0.02-1.11-0.03c-0.01,0-0.01,0-0.02-0.01c-0.09-0.02-0.19-0.05-0.29-0.09c-0.05-0.02-0.1-0.04-0.16-0.06
	c-0.15-0.05-0.3-0.12-0.45-0.19c-0.11-0.05-0.21-0.1-0.32-0.15c-0.1-0.05-0.19-0.1-0.29-0.15c-0.28-0.15-0.53-0.31-0.71-0.43
	c-0.23-0.09-0.45-0.19-0.67-0.28c-0.7-0.48-1.51-0.91-2.03-1.42l-1.4,0.08c-0.22,0.05-0.46,0.24-0.68,0.3
	c-0.14,0.03-0.3,0.05-0.46,0.06c-0.2,0.01-0.39,0-0.59-0.02c-0.07-0.01-0.13-0.01-0.2-0.02c-0.03,0-0.07-0.01-0.11-0.01
	c-0.05-0.01-0.1-0.01-0.14-0.01c-0.07-0.01-0.13-0.01-0.19-0.02c-0.17-0.02-0.32-0.03-0.45-0.03c-0.04,0-0.07,0-0.1,0.01
	c-0.09,0.01-0.18,0.03-0.27,0.05c-0.05,0.01-0.11,0.03-0.16,0.04c-0.01,0-0.01,0-0.02,0.01c-0.05,0.01-0.11,0.03-0.16,0.04
	c-0.03,0.01-0.06,0.02-0.09,0.03c-0.03,0.01-0.07,0.02-0.1,0.03c-0.05,0.01-0.1,0.03-0.15,0.04c-0.09,0.02-0.19,0.04-0.28,0.05
	c-0.01,0-0.01,0-0.02,0c-0.04,0.01-0.07,0.01-0.11,0.01c-0.01,0-0.03,0-0.04,0c-0.06,0.01-0.12,0.01-0.19,0.01
	c-0.12,0-0.23,0-0.35-0.02c-0.18-0.02-0.36-0.05-0.54-0.07c-0.16-0.02-0.31-0.03-0.47-0.04c-0.1-0.01-0.21-0.02-0.31-0.02
	c-0.27-0.02-0.55-0.03-0.82-0.05c-0.4-0.02-0.8-0.03-1.21-0.04c-0.18,0-0.36-0.01-0.53-0.01c-0.23-0.01-0.46-0.01-0.69-0.01
	c-0.06,0-0.12,0-0.17-0.01c-0.6-0.02-1.21-0.04-1.81-0.07c-0.6,0.08-1.41,0.12-2.04,0.19l-2.73-0.06c-0.2,0.03-0.37,0.15-0.58,0.18
	c-0.4,0-0.8-0.01-1.21-0.01c-0.37,0.04-0.82,0.14-1.28,0.14c-0.02,0-0.05,0-0.08,0c-0.24-0.01-0.65-0.07-0.95-0.09c0,0,0,0-0.01,0
	c-0.9-0.03-1.83-0.06-2.78-0.09c-0.2-0.01-0.38-0.03-0.55-0.04c-0.1-0.01-0.2-0.02-0.29-0.02c-0.16-0.01-0.31-0.02-0.46-0.03
	c-0.08,0-0.15,0-0.23-0.01c-0.06,0-0.12,0-0.18,0c-0.07,0-0.13,0-0.2,0c-0.08,0-0.16,0-0.24,0c-0.04,0-0.07,0-0.12,0
	c-0.06,0-0.12,0.01-0.18,0.01c-0.06,0-0.12,0.01-0.18,0.01c-0.26,0.02-0.6,0.02-0.96,0c-0.67-0.03-1.42-0.09-1.85-0.15
	c-0.6,0-1.22-0.01-1.86-0.01c-1.25-0.15-2.37-0.26-3.9-0.28c-1.43-0.02-4.01-0.03-5.66-0.03c-0.98,0-1.95,0.02-2.83,0.1
	c-0.22,0.02-0.44,0.04-0.65,0.07c-0.21,0.03-0.41,0.06-0.61,0.09c-0.4,0.07-0.76,0.15-1.09,0.26c-0.25,0.08-0.55,0.11-0.86,0.11
	c-0.89,0-1.91-0.27-2.44-0.38h-3.88l-0.29,0.36c-0.13,0.05-0.26,0.07-0.42,0.07c-0.77,0-1.82-0.53-2.44-0.53c0,0,0,0-0.01,0
	c-0.05,0-0.1,0-0.14,0.01c-0.49,0.09-1.09,0.34-1.55,0.45h-3.2c-0.87,0.21-1.45,0.83-2.23,1.08c0.09,1.12,1.44,1.94,2.04,2.69
	c0.4,0.5,0.66,1.03,1.07,1.53c0.4,0.49,1.13,0.73,1.55,1.35c0.44,0.66,0.55,1.48,0.99,2.14c0.13,0.12,0.26,0.24,0.39,0.37
	c0.28,0.19,0.56,0.42,0.85,0.64c0.19,0.23,0.26,0.61,0.48,0.81c0.03,0.03,0.08,0.04,0.13,0.04c0.04,0,0.08-0.01,0.13-0.01
	c0.06,0,0.11,0.01,0.14,0.06c0.1,0.18,0.05,0.3,0,0.42c-0.01,0.03-0.02,0.06-0.03,0.09c0,0.02-0.01,0.04-0.01,0.06
	c0,0.04,0.01,0.09,0.04,0.14c0.12,0.21,0.45,0.43,0.58,0.63c0.27,0.4,0.3,0.87,0.58,1.26c0.19,0.26,0.56,0.36,0.68,0.72
	c0.01,0.13,0.02,0.27,0.02,0.41c0.06,0.88,0.11,1.76,0.17,2.65c0.09,0.24,0.48,0.39,0.58,0.63c0.21,0.52-0.01,0.96,0.29,1.35
	c0,0,0.01,0,0.01,0c0.13,0.06,0.25,0.12,0.38,0.18c0.23,0.38,0.11,0.74,0,1.1c-0.04,0.11-0.07,0.22-0.1,0.33
	c0,0.01-0.01,0.03-0.01,0.04c0,0.02-0.01,0.04-0.01,0.06c0,0.02-0.01,0.03-0.01,0.05c0,0.01,0,0.03,0,0.04c0,0.01,0,0.01,0,0.02
	v0.04c0,0.04,0,0.09,0.01,0.13c0,0.01,0,0.03,0,0.04c0.01,0.03,0.02,0.06,0.02,0.09c0.29,0.9,0.69,1.75,1.09,2.61
	c0.27,0.57,0.55,1.15,0.79,1.74c0.06,0.14,0.12,0.29,0.17,0.43c0.06,0.17,0.13,0.33,0.19,0.51c0.05,0.14,0.1,0.29,0.14,0.43
	c0.05,0.16,0.1,0.32,0.14,0.48c0.07,0.27,0.1,0.53,0.1,0.79c0,1.21-0.6,2.32-0.29,3.52c0.05,0.19,0.1,0.39,0.14,0.6
	c0.04,0.19,0.08,0.39,0.12,0.59c0.04,0.17,0.07,0.34,0.11,0.51c0.03,0.16,0.06,0.32,0.1,0.48c0.03,0.16,0.07,0.33,0.11,0.5
	c0.04,0.17,0.08,0.33,0.13,0.49c0.02,0.06,0.03,0.12,0.05,0.18c0.02,0.07,0.04,0.15,0.06,0.23c0.04,0.13,0.08,0.25,0.12,0.37
	c0.05,0.14,0.1,0.28,0.15,0.41c0.05,0.13,0.11,0.26,0.17,0.39c0.18,0.37,0.8,0.48,0.97,0.81c0.01,0.01,0.02,0.03,0.02,0.05
	c0.01,0.02,0.01,0.04,0.02,0.06c0.03,0.13,0.02,0.26,0,0.39c0,0,0,0,0,0c-0.01,0.08-0.04,0.15-0.06,0.23
	c-0.01,0.04-0.02,0.08-0.03,0.12c-0.02,0.07-0.04,0.14-0.04,0.21c-0.01,0.07-0.01,0.14,0,0.2c0.15,0.52,0.77,1.17,1.07,1.62
	c0.56,0.85,1.04,1.9,1.45,2.78c0.48,1.35,0.97,2.69,1.45,4.04h0.97c0.11,0.02,0.22,0.05,0.33,0.09c0.21,0.07,0.4,0.15,0.58,0.23
	c0.09,0.04,0.17,0.09,0.26,0.13c0.02,0.04,0.02,0.06,0.03,0.08c0,0.01,0.01,0.01,0.01,0.02c0.01,0.01,0.01,0.02,0.02,0.03
	c0,0,0.01,0.01,0.01,0.02c0.01,0.01,0.02,0.01,0.03,0.03c-0.19,1.71-1.34,3.29-1.74,4.85c-0.04,0.17-0.06,0.34-0.06,0.52
	c0,0.09,0,0.18,0.02,0.27c0,0.06,0.01,0.12,0.02,0.19c0.01,0.06,0.02,0.12,0.03,0.17c0.02,0.08,0.03,0.16,0.05,0.24
	c0.04,0.16,0.08,0.33,0.13,0.48c0.02,0.08,0.05,0.16,0.07,0.24c0.02,0.06,0.04,0.12,0.05,0.18c0.02,0.04,0.03,0.09,0.04,0.13
	c0.01,0.04,0.02,0.08,0.03,0.12c0.01,0.04,0.02,0.09,0.02,0.14c0.02,0.12,0.01,0.26,0,0.39l0,0c0,0.08-0.01,0.16-0.02,0.24
	c0,0.08-0.01,0.16-0.01,0.24v0.02c0,0.03,0,0.07,0.01,0.1c0,0.04,0.01,0.07,0.02,0.11c0.01,0.07,0.04,0.14,0.08,0.19
	c0,0,1.77,1.04,1.84,1.08c-0.04,0.32-0.19,0.5-0.34,0.66c-0.08,0.09-0.17,0.17-0.25,0.27c-0.04,0.04-0.07,0.09-0.1,0.14
	c-0.03,0.06-0.06,0.12-0.09,0.18c-0.01,0.03-0.02,0.07-0.01,0.12c0,0.01,0,0.03,0.01,0.05c0.01,0.04,0.02,0.09,0.03,0.13
	c0.02,0.07,0.05,0.16,0.08,0.25c0.05,0.13,0.11,0.28,0.18,0.44c0.09,0.21,0.19,0.43,0.29,0.64c0.04,0.1,0.09,0.2,0.13,0.3
	c0.11,0.24,0.2,0.45,0.25,0.58c0.13,0.39,0.18,0.78,0.18,1.16c0,0.08,0,0.15-0.01,0.23c0,0.07-0.01,0.15-0.02,0.23
	c-0.01,0.08-0.02,0.16-0.04,0.24c-0.02,0.08-0.03,0.16-0.05,0.24c-0.02,0.08-0.04,0.16-0.06,0.24c-0.02,0.08-0.05,0.15-0.08,0.23
	c-0.08,0.22-0.19,0.44-0.3,0.64c-0.04,0.07-0.08,0.13-0.11,0.19c-0.04,0.06-0.08,0.13-0.13,0.19c-0.04,0.06-0.08,0.12-0.13,0.17
	c-0.03,0.04-0.06,0.07-0.08,0.1c-0.1,0.13-0.21,0.25-0.33,0.35c0.17,0.95,0.98,1.7,1.45,2.43c0.16,0.24,0.31,0.5,0.46,0.77
	c0.05,0.08,0.1,0.17,0.14,0.25c0.21,0.4,0.41,0.82,0.59,1.25c0.05,0.13,0.1,0.25,0.15,0.38c0.06,0.13,0.1,0.27,0.15,0.41
	c0.09,0.27,0.18,0.54,0.26,0.8c0.01,0.04,0.02,0.09,0.04,0.15c0.01,0.05,0.02,0.1,0.03,0.16c0.01,0.06,0.02,0.12,0.04,0.19
	c0,0.06,0.01,0.11,0.02,0.17c0,0.04,0.01,0.08,0.02,0.12c0,0.05,0.01,0.1,0.02,0.16c0.02,0.19,0.03,0.4,0.04,0.62
	c0.01,0.16,0.02,0.33,0.02,0.5c0,0.09,0,0.17,0,0.26c0,0.19,0,0.39,0,0.58c0,0.11,0,0.21,0,0.32c0,0.06,0,0.12,0,0.18
	c0,0.09-0.01,0.18-0.01,0.26c-0.02,0.49-0.05,0.97-0.1,1.4c-0.02,0.26-0.06,0.51-0.09,0.73c-0.02,0.15-0.05,0.3-0.08,0.42
	c-0.01,0.06-0.02,0.11-0.04,0.16c-0.01,0.03-0.02,0.07-0.03,0.1c-0.01,0.04-0.03,0.09-0.04,0.14c-0.01,0.02-0.02,0.04-0.02,0.07
	c-0.04,0.11-0.08,0.24-0.12,0.36c-0.02,0.06-0.04,0.13-0.05,0.19c-0.03,0.13-0.06,0.27-0.07,0.4c-0.01,0.07-0.01,0.13-0.01,0.2
	c0,0.14,0.02,0.28,0.06,0.42c0.25,0.83,0.95,1.45,1.23,2.13c0.39,0.93,0.63,1.83,0.98,2.76c0.15,0.39,0.5,0.62,0.73,0.96
	c0.05,0.08,0.11,0.17,0.15,0.25c0.04,0.07,0.07,0.14,0.11,0.21c0.14,0.27,0.27,0.56,0.45,0.83c0.11,0.08,0.21,0.29,0.29,0.38
	c0.04,0.05,0.09,0.09,0.14,0.14c0.05,0.04,0.1,0.09,0.15,0.12c-0.06,0.91-0.38,1.48-0.56,2.12c-0.46,1.66-0.75,3.65-0.59,5.53
	c0.01,0.09,0.02,0.17,0.04,0.26c0.02,0.1,0.06,0.21,0.1,0.32c0.05,0.15,0.12,0.3,0.2,0.45c0.03,0.05,0.05,0.11,0.08,0.16
	c0.27,0.52,0.57,1.02,0.69,1.41c0.05,0.17,0.08,0.39,0.09,0.65l0,0c0,0.07,0,0.14,0,0.22c0,0.14-0.01,0.29-0.02,0.45
	c0,0.08-0.01,0.17-0.02,0.25c-0.01,0.09-0.01,0.17-0.03,0.26c-0.03,0.22-0.06,0.45-0.1,0.68c-0.15,0.92-0.4,1.87-0.56,2.31
	c-0.12,0.36-0.1,0.82-0.18,1.21c-0.01,0.05-0.02,0.09-0.03,0.13c-0.01,0.03-0.02,0.06-0.03,0.08c-0.01,0.03-0.02,0.06-0.03,0.08
	c-0.02,0.04-0.04,0.07-0.06,0.11c0.01,0.37,0.42,0.79,0.91,1.15c0.49,0.36,1.07,0.65,1.37,0.82c-0.02,0.41-0.09,0.79-0.16,1.15
	c-0.02,0.07-0.04,0.14-0.05,0.2c-0.04,0.14-0.07,0.28-0.11,0.42c-0.02,0.06-0.03,0.11-0.05,0.17c-0.01,0.06-0.03,0.11-0.05,0.17
	c-0.03,0.11-0.07,0.22-0.11,0.33c-0.07,0.21-0.14,0.43-0.21,0.64c-0.05,0.14-0.09,0.27-0.13,0.41c-0.01,0.03-0.02,0.06-0.03,0.09
	c-0.23,0.79-0.58,1.74-0.93,2.69c-0.34,0.94-0.69,1.89-0.95,2.76c-0.13,0.42-0.24,0.82-0.32,1.18c-0.12,1.43-0.58,2.89-0.84,4.39
	c0,0.13,0,0.26,0,0.37c-0.13,0.09-0.21,0.14-0.21,0.14l0.4,0.65c1.48,0,3.66-0.58,4.98-0.85c0.65-0.03,1.29-0.06,1.94-0.09
	c0.36-0.07,1.2-0.2,1.74-0.2c0.11,0,0.21,0.01,0.29,0.02c0.13,0.02,0.31,0.06,0.52,0.1c0.07,0.01,0.15,0.03,0.23,0.05
	c0.32,0.07,0.69,0.15,1.07,0.23c0.28,0.06,0.57,0.12,0.84,0.16c0.09,0.01,0.18,0.03,0.27,0.04c0.02,0,0.04,0.01,0.06,0.01
	c0.32,0.05,0.61,0.08,0.83,0.08c0.16,0,0.28-0.02,0.35-0.06c1.23-0.02,3.57-0.49,5.23-0.49c0.11,0,0.22,0,0.32,0.01
	c0.06,0,0.13,0.01,0.19,0.01c0.65,0.05,1.13,0.2,1.31,0.54h0.03c0.33,0,0.67,0,1.02,0.01c0.06,0,0.12,0,0.18,0
	c0.18,0,0.36,0.01,0.55,0.02c1.09,0.03,2.24,0.09,3.39,0.14c0.69,0.03,1.38,0.05,2.06,0.07c0.36,0.01,0.72,0.01,1.07,0.01
	c0.78,0,1.53-0.02,2.26-0.07c2.41-0.17,3.95-0.22,4.91-0.22h0.09c0,0.04,0,0.07,0,0.11c0.06-0.01,0.13-0.01,0.2-0.02
	c0.34-0.03,0.7-0.05,1.05-0.06c0,0.01-0.01,0.01-0.01,0.02c0.17,0.02,0.22,0.04,0.22,0.04c0.44,0,0.85-0.02,1.26-0.03
	c0.15,0.01,0.29,0.03,0.42,0.06c1.31,0.28,3.04-0.17,3.04-0.17l2.57,0.86l0.54-0.18c0.06,0.01,0.11,0.02,0.16,0.03
	c0.11,0.07,0.23,0.1,0.36,0.14c0.05,0.01,0.09,0.03,0.14,0.04c0.07,0.02,0.13,0.04,0.19,0.05c0.02,0.01,0.05,0.01,0.07,0.02
	c0.09,0.02,0.17,0.04,0.25,0.05c0.89,0.16,1.92,0.35,2.8,0.51l1.49-0.06c1.38,0.25,3.35,0.24,4.66,0.54
	c0.34-0.04,0.69-0.08,1.03-0.12c0.18,0.02,0.65,0.22,0.75,0.25l2.07-0.04c0.36,0.07,0.89,0.21,1.42,0.21c0.16,0,0.32-0.02,0.47-0.05
	c0.14-0.03,0.29-0.06,0.44-0.08c0.12-0.02,0.23-0.03,0.35-0.05c0.1-0.01,0.19-0.02,0.28-0.03c0.1-0.01,0.21-0.02,0.32-0.02
	c0.47-0.03,0.95-0.04,1.43-0.04c0.95,0,1.9,0.02,2.76-0.07c0.62,0.01,1.24,0.02,1.86,0.03c0.12-0.02,0.24-0.05,0.36-0.08l0.02-0.01
	c0.19-0.05,0.39-0.11,0.59-0.17c0.13-0.04,0.26-0.09,0.39-0.13c0.06-0.02,0.13-0.05,0.19-0.07c0.26-0.09,0.52-0.19,0.77-0.29
	c0.25-0.1,0.5-0.19,0.74-0.27c0.76-0.26,1.55-0.33,2.3-0.63c0.07-0.03,0.13-0.06,0.2-0.09c0.08-0.03,0.15-0.07,0.23-0.1
	c0.16-0.07,0.33-0.15,0.49-0.21c0.06-0.02,0.12-0.05,0.18-0.07c0,0,0.01-0.01,0.01-0.01c0.06-0.02,0.12-0.04,0.18-0.06
	c0.07-0.02,0.13-0.03,0.2-0.05c0.09-0.02,0.2-0.02,0.3-0.01c0.06,0,0.13,0.01,0.2,0.02c0.05,0.01,0.11,0.02,0.16,0.03
	c0.06,0.01,0.12,0.03,0.18,0.05c0.08,0.02,0.15,0.04,0.22,0.06c0.06,0.02,0.12,0.03,0.18,0.06c0.1,0.03,0.21,0.07,0.31,0.11
	c0.11,0.04,0.21,0.08,0.31,0.12c0.71,0.28,1.41,0.61,1.78,0.73c0.42,0.13,0.79,0.19,1.13,0.21c0.17,0.01,0.34,0.01,0.51,0
	c0.23-0.01,0.45-0.03,0.67-0.05c0.03,0,0.06,0,0.09-0.01c0,0,0.01,0,0.01,0c0.23-0.02,0.45-0.04,0.7-0.05c0.01,0,0.01,0,0.02,0
	c0.35-0.01,0.73,0,1.16,0.06c0.59-0.07,0.59-0.4,1.27-0.76c0.68-0.37,0.79-0.43,2.21-0.65c1.42-0.22,1.86-0.2,2.21,0.15
	c0.35,0.34,0.9,0.56,1.27,0.23c-0.05,0.06-0.01,0.08,0.65-0.34c1.27-0.81,1.09-0.54,1.09-0.54l0.5-0.4l1.33,0.02l0.4-0.43
	c0,0,0.17-0.01,0.43,0.19c0.26,0.2,0.67-0.15,0.85-0.08c0.11,0.05,0.24,0.04,0.35,0.04c0.51,0,0.94-0.23,1.3-0.31
	c0.2-0.05,0.4-0.06,0.59-0.06c0.79,0,2.42,0.4,3.95,0.64c1.9,0.29,5.17,0.34,6.8,0.79c0.3,0.02,0.6,0.05,0.89,0.07
	c0.15,0.01,0.29,0.02,0.43,0.03c0.28,0.02,0.53,0.03,0.74,0.03c0.1,0,0.2,0,0.3,0c0.15,0,0.3-0.02,0.4-0.03
	c0.07-0.31-0.07-0.86-0.07-1.11c0-0.23,0-0.44,0-0.66c-0.01-0.42,0.05-0.86,0.06-1.49c-0.06-0.46-0.14-0.93-0.25-1.4
	c-0.02-0.2-0.09-0.59-0.21-0.97c-0.01-0.05-0.03-0.11-0.05-0.16c-0.03-0.1-0.07-0.19-0.11-0.28c0,0,0,0,0,0
	c-0.03-0.06-0.05-0.12-0.08-0.18c-0.36-0.69-0.75-1.42-1.15-2.14l-1.33,0.02l0.56-1.42c-0.16-0.33-0.31-0.67-0.46-1
	c-0.04-0.08-0.07-0.15-0.1-0.23c-0.17-0.3-0.49-0.86-0.65-1.29c-0.03-0.09-0.06-0.18-0.07-0.26c-0.27-1.35-0.67-2.98-0.44-4.26
	l0.01-0.95c0.01-0.07,0.03-0.13,0.05-0.21c0.07-0.29,0.18-0.62,0.29-0.99c0.09-0.28,0.19-0.59,0.29-0.9
	c0.05-0.15,0.1-0.31,0.14-0.47c0.02-0.08,0.04-0.16,0.07-0.24c0.02-0.08,0.04-0.16,0.06-0.24c0.02-0.06,0.03-0.11,0.04-0.17
	c0-0.01,0.01-0.02,0.01-0.02c0.02-0.09,0.04-0.17,0.06-0.26c0.02-0.08,0.03-0.15,0.04-0.23c0.01-0.06,0.02-0.13,0.03-0.19
	c0.02-0.11,0.03-0.21,0.04-0.31c0-0.03,0.01-0.05,0.01-0.08l0.01-0.17c0-0.03,0-0.06,0-0.09c0-0.18,0.25-0.48,0.23-0.65
	c-0.11-0.1-0.22-0.22-0.31-0.36c0.87-1.27,0.79-3.43,0.67-4.45c0.04-0.3,0.02-0.71-0.07-1.07c-0.01-0.39-0.03-0.76-0.11-1.2
	l0.11-0.3c0-0.09-0.01-0.17-0.02-0.26c0-0.03-0.01-0.06-0.01-0.09c-0.01-0.11-0.03-0.23-0.04-0.33c-0.04-0.29-0.09-0.57-0.13-0.87
	c-0.01-0.09-0.02-0.18-0.03-0.27c-0.01-0.09-0.01-0.19-0.01-0.29c0-0.06,0-0.12,0-0.18c0-0.05,0-0.1,0.01-0.15
	c0-0.07,0.01-0.14,0.02-0.21c0.01-0.07,0.02-0.15,0.03-0.22c0.16-0.1,0.31-0.22,0.44-0.34c0.04-0.04,0.08-0.08,0.12-0.13
	c0.04-0.04,0.08-0.09,0.12-0.14l0.16-1.84c0,0-0.19-0.67-0.46-1.16c-0.27-0.49-0.57-0.81-0.84-1.2c-0.23-0.34,0.06-0.6,0.29-0.78
	c0.09-0.27,0.19-0.48,0.3-0.67c-0.13-1.1,0.22-2.98,0.22-2.98s0.32-4.06,0.69-5.12c0.37-1.06,1-2.92,1.32-3.6
	c0.32-0.68,0.05-1.95,0.46-2.62c0.37-0.61,0.74-0.88,1.11-1.51c-0.15-0.55-0.32-1.1-0.41-1.67l-0.18-0.3l-1.71-1.39l-0.07-1.51
	c0,0-0.14-0.38,0.67-1.75c0.81-1.37,0.92-2.7,0.92-2.7l0.37-0.89c0,0-0.01-0.79,1.42-0.99c0.09-0.01,0.18-0.03,0.26-0.05
	c0.03-0.52,0.04-1.02,0.04-1.02c0.1-0.2,0.25-0.38,0.43-0.56c0.02-0.02,0.04-0.04,0.06-0.06c0.05-0.26,0.07-0.58,0.12-1.02
	c0.07-0.73,0.3-2.92,0.25-3.74c-0.04-0.7-0.26-1.32-0.17-2.18c-0.13-0.41-0.23-0.78-0.23-1.01c0-0.07,0.01-0.14,0.02-0.21
	c0.09-0.53,0.46-1.17,0.58-1.86c0.02-0.14,0.04-0.28,0.04-0.42c0.03-0.86,1.25-4.98,1.28-5.83c-0.01-0.22-0.09-0.69-0.04-0.98
	c0-0.02,0.01-0.04,0.01-0.06c0.03-0.11,0.07-0.22,0.12-0.32c0.03-0.07,0.07-0.14,0.11-0.21c0.02-0.04,0.04-0.08,0.07-0.12
	c0.02-0.04,0.04-0.07,0.06-0.11c0.03-0.05,0.06-0.1,0.09-0.15c0.05-0.09,0.1-0.18,0.16-0.26c0.04-0.06,0.07-0.12,0.11-0.18
	c0.19-0.32,0.38-0.65,0.52-1.02c0.02-0.05,0.04-0.1,0.05-0.15c0.01-0.01,0.01-0.03,0.01-0.04c0.02-0.07,0.04-0.14,0.06-0.21
	c0.02-0.08,0.04-0.15,0.05-0.23c0.01-0.07,0.02-0.15,0.03-0.22c0.01-0.12,0.02-0.24,0.01-0.37c0-0.01,0-0.01,0-0.02
	c0-0.06-0.01-0.13-0.01-0.2c-0.01-0.1-0.03-0.19-0.05-0.29c-0.04-0.17-0.48-1.43-0.49-1.54c-0.09-1.1,0.62-3.45,1.26-6.08
	c0.15-0.62,0.28-1.26,0.41-1.9l-0.75-2.6l1.75-1.38c0.23-0.95,0.13-2.22,0.34-2.88c0.02-0.07,0.04-0.12,0.07-0.17
	c0.39-0.71,1.02-1.19,1.3-2.18l0.02-0.06c0.01-0.05,0.02-0.1,0.03-0.16c0.08-0.45,0.06-1.06,0.1-1.61c0.01-0.2,0.04-0.4,0.08-0.58
	c0.03-0.13,0.07-0.25,0.12-0.36c0.07-0.14,0.15-0.27,0.25-0.41c0.04-0.05,0.07-0.1,0.11-0.15c0.03-0.04,0.05-0.07,0.08-0.11
	c0.03-0.04,0.06-0.07,0.09-0.11c0.12-0.15,0.23-0.3,0.35-0.45c0.04-0.06,0.08-0.12,0.13-0.18c0.05-0.08,0.1-0.16,0.15-0.24
	c0.03-0.05,0.06-0.11,0.09-0.16c0.34-0.68,0.26-1.61,0.49-2.39c0.12-0.4,0.39-0.65,0.47-1.01c0.02-0.06,0.02-0.17,0.03-0.3
	C179.6,50.51,179.45,48.36,179.36,47.87z M156.02,64.73c-5.63,7.35-7.24,11.82-7.24,11.82c-0.99,2.56-2.32,10.56-2.32,10.56
	l-8.98,50.66c-0.74,5.97,3.09,9.85,3.09,9.85c0.54,0.56-0.1,0.54-0.1,0.54l-27.14,0.27c-0.88,0.04-0.48-0.54-0.48-0.54l1.45-4.12
	c0.53-1.48,0.39-2.24,0.39-2.24c-0.05-1.96-1.45-7.43-1.45-7.43l-3.77-17.45c-0.12-0.3-0.19,0-0.19,0
	c-2.21,7.57-5.31,22.11-5.31,22.11c-0.45,2.52,0,3.85,0,3.85c1.08,4.08,1.83,5.28,1.83,5.28c0.4,0.76-0.1,0.54-0.1,0.54
	c-0.59,0-27.62,0.09-27.62,0.09c-0.31,0-0.19-0.18-0.19-0.18c0.13-0.21,0.87-1.07,0.87-1.07c2.43-2.75,3.09-4.56,3.09-4.56
	c1.2-2.39,0.39-4.56,0.39-4.56c-1.45-6.42-5.99-24.61-5.99-24.61c-3.2-12.69-8.69-34.01-8.69-34.01c-1.98-7.33-3.28-9.94-3.28-9.94
	c-1.43-3.26-3.86-4.39-3.86-4.39c-0.48-0.33-1.35-0.98-1.35-0.98c24.04,0,26.07,0,26.07,0c0.7,0.01,0.39,0.63,0.39,0.63
	c-0.38,1.53-0.68,6.71-0.68,6.71c-0.09,1.73,0.48,4.12,0.48,4.12l9.66,43.86c0.89-2.98,13.42-49.59,13.42-49.59
	c0.15-0.41,0.19-0.18,0.19-0.18l5.21,19.07l8.79,31.6c0.3,0.79,0.48-0.18,0.48-0.18c0.62-2.91,7.34-42.87,7.34-42.87l1.26-7.7
	c0.36-3.46-1.74-5.19-1.74-5.19c-0.68-0.63,0.1-0.45,0.1-0.45c2.61,0.23,25.49,0,25.49,0C156.78,64,156.02,64.73,156.02,64.73z"/>
<g>
	<path class="st1" d="M99.13,47.35c0-2.22,6.44-7.39,9.07-8.87V37h-0.59H85.38h-0.29h-1.17h-0.88h-0.29H60.5h-0.59v1.48
		c2.34,1.48,9.07,6.65,9.07,8.87c0,0.49,0.29,120.02,0.29,121.5c0,2.22-6.44,7.39-9.07,8.87v1.48h0.59h22.25l0,0h1.17h1.17h0.29
		h22.25h0.59v-1.48c-2.34-1.48-9.07-6.65-9.07-8.87C99.13,167.86,99.13,49.81,99.13,47.35z"/>
</g>
<g>
	<path class="st1" d="M150.78,47.35c0-2.22,6.44-7.39,9.07-8.87V37h-0.59h-22.25h-0.29h-1.17h-0.88h-0.29h-22.25h-0.59v1.48
		c2.34,1.48,9.07,6.65,9.07,8.87c0,0.49,0.29,120.02,0.29,121.5c0,2.22-6.44,7.39-9.07,8.87v1.48h0.59h22.25l0,0h1.17h1.17h0.29
		h22.25h0.59v-1.48c-2.34-1.48-9.07-6.65-9.07-8.87C150.78,167.86,150.78,49.81,150.78,47.35z"/>
</g>
<g>
	<path class="st2" d="M113.82,157.26c-0.86,0-1.66-0.4-2.17-1.09c-0.51-0.69-0.67-1.57-0.42-2.39c0.59-1.96,0.87-4.28,0.87-7.11
		c0-2.18-1.08-8.79-2.25-15.28c-1.57,7.01-2.93,13.69-2.93,15.53c0,2.09,0.54,4.13,1.69,6.43c0.42,0.84,0.38,1.84-0.12,2.63
		s-1.37,1.28-2.3,1.28H76.11c-1.18,0-2.23-0.77-2.58-1.9c-0.35-1.13,0.07-2.36,1.04-3.03c1.85-1.3,4.36-3.93,4.27-5.49
		c-0.7-10.51-15.58-66.45-17.16-72.14c-0.03-0.09-0.05-0.19-0.06-0.28c-0.64-3.85-2.77-7.35-5.83-9.6
		c-0.94-0.69-1.34-1.91-0.97-3.03c0.37-1.11,1.4-1.87,2.57-1.87h29.57c0.83,0,1.61,0.38,2.12,1.02s0.71,1.49,0.52,2.29
		c-0.61,2.64-0.91,5.71-0.92,9.37c0.81,8.31,4.63,26.14,7.25,37.79l11.32-45.47c0.3-1.2,1.38-2.05,2.62-2.05c0,0,0,0,0.01,0
		c1.24,0,2.32,0.84,2.62,2.04l10.94,43c2.96-16.96,6.24-36.23,6.39-38.77c-0.21-1.66-1.04-3.11-2.36-4.1
		c-0.93-0.7-1.31-1.92-0.94-3.02c0.37-1.11,1.4-1.85,2.57-1.85h31.05c1.11,0,2.11,0.68,2.52,1.71c0.41,1.03,0.15,2.21-0.66,2.97
		c-3.81,3.59-6.55,7.9-8.12,12.82c-2.63,10.34-12.02,63-12.22,67.21c0.24,3,1.33,5.82,3.08,7.96c0.66,0.81,0.8,1.93,0.35,2.88
		c-0.45,0.95-1.4,1.55-2.45,1.55H113.82z"/>
	<path class="st0" d="M86.95,62.63c-0.74,3.2-0.99,6.65-0.99,10.1c1.23,13.06,9.86,49.29,9.86,49.29l14.05-56.44l14.05,55.2
		c0,0,8.63-48.55,8.63-51.75c-0.25-2.46-1.48-4.68-3.45-6.16h31.05c-4.19,3.94-7.15,8.63-8.87,14.05
		c-2.71,10.6-12.32,64.57-12.32,68.02c0.25,3.45,1.48,6.9,3.7,9.61h-28.83c0.74-2.46,0.99-5.18,0.99-7.89
		c0-4.93-4.68-28.34-4.68-28.34s-5.91,24.15-5.91,28.59c0,2.71,0.74,5.18,1.97,7.64H76.11c0,0,5.67-3.94,5.42-7.89
		c-0.74-11.09-16.02-68.27-17.25-72.7c-0.74-4.44-3.2-8.63-6.9-11.34H86.95 M160.15,62.87L160.15,62.87 M86.95,57.21H57.38
		c-2.34,0-4.42,1.51-5.15,3.73c-0.73,2.23,0.06,4.67,1.94,6.05c2.46,1.81,4.24,4.74,4.76,7.86c0.03,0.19,0.07,0.38,0.12,0.56
		c2.72,9.81,16.22,61.14,17.05,71.4c-0.29,0.77-1.78,2.36-3.11,3.31c-1.92,1.36-2.75,3.82-2.04,6.07c0.72,2.25,2.79,3.78,5.15,3.78
		h30.07c1.45,0,2.82-0.58,3.82-1.58c1.01,1,2.38,1.58,3.82,1.58h28.83c2.09,0,4-1.21,4.89-3.1c0.9-1.89,0.62-4.13-0.7-5.75
		c-1.37-1.67-2.23-3.88-2.46-6.26c0.46-5.22,9.27-55.23,12.1-66.45c1.45-4.48,3.84-8.26,7.31-11.54c1.09-0.99,1.77-2.42,1.77-4
		c0-2.99-2.42-5.42-5.41-5.42h-0.01H129.1c-2.33,0-4.4,1.49-5.14,3.7c-0.74,2.21,0.02,4.65,1.89,6.05c0.66,0.49,1.1,1.2,1.26,2.02
		c-0.26,2.6-2.08,13.56-4.17,25.73l-7.81-30.71c-0.61-2.4-2.77-4.08-5.25-4.08c0,0-0.01,0-0.01,0c-2.48,0.01-4.64,1.7-5.24,4.11
		l-8.52,34.24c-2.07-9.72-4.13-20.22-4.71-26.04c0.01-3.39,0.29-6.22,0.85-8.63c0.37-1.61-0.01-3.3-1.04-4.59
		C90.17,57.96,88.6,57.21,86.95,57.21L86.95,57.21z M86.95,68.04L86.95,68.04L86.95,68.04L86.95,68.04z"/>
</g>
</svg>
