<?xml version="1.0" standalone="no"?>
<!DOCTYPE svg PUBLIC "-//W3C//DTD SVG 20010904//EN"
 "http://www.w3.org/TR/2001/REC-SVG-20010904/DTD/svg10.dtd">
<svg version="1.0" xmlns="http://www.w3.org/2000/svg"
 width="707.000000pt" height="353.000000pt" viewBox="0 0 707.000000 353.000000"
 preserveAspectRatio="xMidYMid meet">

<g transform="translate(0.000000,353.000000) scale(0.100000,-0.100000)"
fill="#000000" stroke="none">
<path d="M1419 2115 c-1 -3 -2 -11 -3 -17 0 -7 -8 -13 -16 -13 -9 0 -14 -8
-12 -19 2 -10 -1 -15 -6 -12 -6 4 -8 -3 -5 -16 4 -18 3 -20 -6 -8 -7 11 -9 -2
-6 -45 3 -50 3 -53 -4 -20 l-8 40 -2 -47 c0 -26 4 -50 10 -54 6 -4 9 -21 5
-43 -3 -20 -3 -29 1 -21 7 17 45 -109 38 -128 -3 -8 0 -10 7 -6 8 5 9 2 5 -9
-8 -22 2 -49 16 -40 6 4 8 0 4 -11 -5 -11 -3 -15 5 -10 7 5 9 2 5 -8 -3 -9 1
-24 9 -35 9 -10 13 -12 9 -5 -11 21 4 13 15 -9 9 -15 8 -24 -1 -35 -13 -16
-84 -20 -74 -3 4 6 0 9 -11 7 -14 -2 -18 2 -16 16 2 10 -1 15 -6 12 -12 -7
-22 17 -21 47 1 17 3 15 9 -8 6 -22 7 -12 6 36 -1 47 -4 64 -12 58 -6 -5 -15
-5 -19 -1 -5 4 -5 2 -2 -5 9 -15 -3 -44 -15 -37 -6 4 -7 -2 -3 -16 5 -16 4
-20 -4 -15 -8 5 -10 -2 -6 -22 5 -21 4 -24 -4 -13 -8 11 -11 2 -11 -40 0 -42
3 -51 11 -40 9 12 10 11 6 -7 -3 -12 1 -27 9 -34 14 -11 135 -19 128 -8 -5 9
26 20 37 13 5 -3 9 0 9 6 0 6 5 8 10 5 6 -3 10 -1 10 6 0 7 17 -3 37 -22 25
-22 29 -24 14 -6 -14 15 -20 27 -14 27 11 0 51 -41 52 -52 1 -5 4 -9 9 -10 4
0 12 -6 17 -13 13 -15 48 -29 40 -15 -3 6 -10 10 -14 10 -5 0 -30 22 -57 49
l-49 49 84 83 c47 46 76 77 65 70 -10 -8 -2 1 19 21 25 24 35 41 31 52 -4 11
-2 16 7 14 8 -2 14 4 13 12 -1 9 5 21 13 28 11 11 14 10 19 -2 3 -9 10 -14 14
-11 4 3 11 -2 14 -11 4 -10 2 -13 -7 -9 -6 4 -4 0 6 -8 25 -21 21 -49 -11 -80
-20 -19 -34 -25 -47 -21 -13 5 -16 4 -10 -5 5 -10 2 -11 -12 -7 -12 4 -25 1
-33 -9 -14 -17 -10 -19 53 -30 29 -5 37 -3 31 6 -5 9 0 10 20 5 20 -5 26 -4
20 5 -5 9 -2 10 9 6 10 -4 17 -1 17 5 0 6 3 9 6 5 4 -3 14 2 23 11 10 11 12
12 6 2 -9 -13 -8 -13 7 -2 10 8 14 20 11 29 -4 9 -2 14 3 11 5 -4 9 11 9 31 0
28 -8 45 -31 67 -20 20 -22 23 -4 9 l25 -20 -24 27 c-13 15 -28 25 -32 22 -12
-7 -43 17 -47 36 -5 20 -25 31 -36 20 -14 -14 -29 -13 -20 1 4 8 -1 9 -16 4
-16 -5 -20 -4 -15 5 5 9 1 10 -15 5 -16 -5 -20 -4 -15 4 5 8 -2 10 -22 6 -22
-5 -25 -4 -13 5 12 8 6 9 -25 5 -30 -5 -36 -4 -25 4 11 8 -2 10 -50 6 -48 -3
-56 -2 -30 4 29 7 21 9 -42 10 -63 1 -78 4 -78 17 0 9 5 12 11 8 7 -4 10 -1 7
7 -2 7 3 20 12 29 12 12 13 13 0 5 -13 -9 -13 -8 -1 8 23 29 78 22 114 -15 17
-18 27 -26 22 -18 -7 12 -6 13 6 3 16 -13 61 -14 53 -1 -3 5 -10 5 -16 2 -7
-5 -9 -1 -5 9 3 9 1 19 -5 23 -7 5 -8 2 -4 -7 4 -8 1 -5 -8 5 -8 10 -13 22
-11 26 3 4 -5 16 -18 26 -22 19 -22 19 -7 -2 8 -11 2 -6 -14 10 -16 17 -26 26
-22 19 5 -8 -1 -9 -24 0 -20 7 -25 14 -17 19 7 4 -4 8 -25 8 -21 0 -39 -2 -39
-5z m28 -191 c-3 -3 -12 -4 -19 -1 -8 3 -5 6 6 6 11 1 17 -2 13 -5z m93 -25
c-11 -8 -5 -9 25 -4 31 4 37 3 25 -5 -12 -9 -10 -10 12 -6 32 7 60 -2 51 -17
-4 -6 0 -8 10 -4 21 8 49 -2 41 -14 -5 -9 1 -11 36 -13 13 -1 16 -10 11 -47 0
-5 -5 -7 -11 -4 -5 3 -7 0 -4 -8 3 -8 0 -18 -7 -23 -8 -5 -10 -3 -4 7 5 8 6
12 2 9 -3 -3 -6 -8 -6 -13 0 -4 -11 -18 -24 -30 -13 -12 -15 -16 -5 -8 36 29
16 4 -49 -59 -37 -36 -61 -56 -53 -45 8 11 -2 3 -22 -17 -40 -43 -44 -44 -64
-23 -9 8 -12 15 -8 15 4 0 0 6 -11 13 -11 9 -15 19 -10 27 5 8 4 11 -2 7 -14
-9 -24 18 -16 40 5 11 3 14 -6 8 -10 -6 -11 -2 -6 15 5 16 4 20 -4 15 -8 -5
-10 2 -6 22 5 19 4 24 -3 15 -14 -20 -21 30 -15 95 l6 52 46 4 c25 2 55 4 66
5 17 1 18 0 5 -9z m-133 -31 c-3 -7 -5 -2 -5 12 0 14 2 19 5 13 2 -7 2 -19 0
-25z m-76 -385 c13 -16 12 -17 -3 -4 -10 7 -18 15 -18 17 0 8 8 3 21 -13z"/>
<path d="M1421 1794 c0 -11 3 -14 6 -6 3 7 2 16 -1 19 -3 4 -6 -2 -5 -13z"/>
<path d="M1811 2015 c1 -16 5 -43 9 -60 7 -27 8 -26 9 15 0 25 -4 52 -9 60 -7
11 -9 8 -9 -15z"/>
<path d="M1618 1953 c6 -2 18 -2 25 0 6 3 1 5 -13 5 -14 0 -19 -2 -12 -5z"/>
<path d="M1801 1944 c0 -11 3 -14 6 -6 3 7 2 16 -1 19 -3 4 -6 -2 -5 -13z"/>
<path d="M1811 1904 c0 -11 3 -14 6 -6 3 7 2 16 -1 19 -3 4 -6 -2 -5 -13z"/>
<path d="M1268 1888 c5 -5 16 -8 23 -6 8 3 3 7 -10 11 -17 4 -21 3 -13 -5z"/>
<path d="M1328 1893 c6 -2 18 -2 25 0 6 3 1 5 -13 5 -14 0 -19 -2 -12 -5z"/>
<path d="M1205 1860 c-17 -18 -17 -20 -2 -14 9 3 17 10 17 16 0 5 5 6 12 2 7
-4 8 -3 4 4 -9 16 -10 15 -31 -8z"/>
<path d="M1371 1794 c0 -11 3 -14 6 -6 3 7 2 16 -1 19 -3 4 -6 -2 -5 -13z"/>
<path d="M4439 1795 c0 0 -2 -16 -3 -35 -2 -19 -2 -30 1 -24 2 6 14 9 27 7 20
-4 24 0 28 25 4 26 2 29 -24 28 -15 -1 -28 -1 -29 -1z"/>
<path d="M4499 1760 c-3 -15 -13 -27 -29 -31 -22 -6 -22 -7 -4 -8 26 -1 47 22
42 46 -4 14 -6 12 -9 -7z"/>
<path d="M1372 1680 c0 -14 2 -19 5 -12 2 6 2 18 0 25 -3 6 -5 1 -5 -13z"/>
<path d="M1625 1588 l-40 -43 43 40 c39 36 47 45 39 45 -2 0 -21 -19 -42 -42z"/>
<path d="M1693 1593 c9 -2 25 -2 35 0 9 3 1 5 -18 5 -19 0 -27 -2 -17 -5z"/>
<path d="M1470 1562 c0 -6 -8 -13 -17 -15 -16 -4 -16 -5 -1 -6 18 -1 34 16 24
26 -3 4 -6 1 -6 -5z"/>
<path d="M1373 1453 c9 -2 23 -2 30 0 6 3 -1 5 -18 5 -16 0 -22 -2 -12 -5z"/>
</g>
</svg>
